# xmcd CD database file
#
# Track frame offsets:
#	150
#	20680
#	42447
#	60380
#
# Disc length: 1076 seconds
#
# Revision: 0
# Processed by: cddbd v1.5.1PL0 Copyright (c) Steve Scherf et al.
# Submitted via: CDex 1.40Beta9
#
DISCID=2d043204
DTITLE=Les.R - 卒業
DYEAR=2005
DGENRE=J-Pop
TTITLE0=卒業
TTITLE1=さくらのころ
TTITLE2=Everyday
TTITLE3=卒業(Instrumental)
EXTD=YEAR: 2005/02/23
EXTT0=
EXTT1=
EXTT2=
EXTT3=
PLAYORDER=
